<mxfile host="app.diagrams.net" modified="2023-09-07T12:25:57.392Z" agent="Mozilla/5.0 (Windows NT 10.0; Win64; x64) AppleWebKit/537.36 (KHTML, like Gecko) Chrome/114.0.0.0 Safari/537.36" etag="wR6FsnVYRfUmLOXT9Uy3" version="21.7.2" type="device">
  <diagram name="Страница — 1" id="S0ekJQ76ugPjxJWExmL1">
    <mxGraphModel dx="873" dy="494" grid="1" gridSize="10" guides="1" tooltips="1" connect="1" arrows="1" fold="1" page="1" pageScale="1" pageWidth="827" pageHeight="1169" math="0" shadow="0">
      <root>
        <mxCell id="0" />
        <mxCell id="1" parent="0" />
        <mxCell id="cGE_5ViqhjNnYanDLGzq-1" value="Пользователь" style="shape=umlActor;verticalLabelPosition=bottom;verticalAlign=top;html=1;outlineConnect=0;" parent="1" vertex="1">
          <mxGeometry x="430" y="60" width="30" height="60" as="geometry" />
        </mxCell>
        <mxCell id="cGE_5ViqhjNnYanDLGzq-2" value="Авторизованный&amp;nbsp;&lt;br&gt;" style="shape=umlActor;verticalLabelPosition=bottom;verticalAlign=top;html=1;outlineConnect=0;" parent="1" vertex="1">
          <mxGeometry x="430" y="320" width="30" height="60" as="geometry" />
        </mxCell>
        <mxCell id="cGE_5ViqhjNnYanDLGzq-4" value="Сотрудник тех поддержки&lt;br&gt;&amp;nbsp;" style="shape=umlActor;verticalLabelPosition=bottom;verticalAlign=top;html=1;outlineConnect=0;" parent="1" vertex="1">
          <mxGeometry x="430" y="560" width="30" height="60" as="geometry" />
        </mxCell>
        <mxCell id="cGE_5ViqhjNnYanDLGzq-5" value="Администратор&amp;nbsp;" style="shape=umlActor;verticalLabelPosition=bottom;verticalAlign=top;html=1;outlineConnect=0;" parent="1" vertex="1">
          <mxGeometry x="430" y="790" width="30" height="60" as="geometry" />
        </mxCell>
        <mxCell id="cGE_5ViqhjNnYanDLGzq-6" value="Зарегистрироваться&amp;nbsp;" style="ellipse;whiteSpace=wrap;html=1;" parent="1" vertex="1">
          <mxGeometry x="140" y="20" width="120" height="80" as="geometry" />
        </mxCell>
        <mxCell id="cGE_5ViqhjNnYanDLGzq-7" value="Войти" style="ellipse;whiteSpace=wrap;html=1;" parent="1" vertex="1">
          <mxGeometry x="130" y="120" width="120" height="80" as="geometry" />
        </mxCell>
        <mxCell id="cGE_5ViqhjNnYanDLGzq-8" value="" style="endArrow=none;html=1;rounded=0;entryX=0;entryY=0.5;entryDx=0;entryDy=0;exitX=1;exitY=0.3333333333333333;exitDx=0;exitDy=0;exitPerimeter=0;" parent="1" source="cGE_5ViqhjNnYanDLGzq-1" target="cGE_5ViqhjNnYanDLGzq-13" edge="1">
          <mxGeometry width="50" height="50" relative="1" as="geometry">
            <mxPoint x="470" y="80" as="sourcePoint" />
            <mxPoint x="440" y="280" as="targetPoint" />
            <Array as="points" />
          </mxGeometry>
        </mxCell>
        <mxCell id="cGE_5ViqhjNnYanDLGzq-9" value="" style="endArrow=none;html=1;rounded=0;exitX=1;exitY=0.3333333333333333;exitDx=0;exitDy=0;exitPerimeter=0;" parent="1" source="cGE_5ViqhjNnYanDLGzq-1" target="cGE_5ViqhjNnYanDLGzq-12" edge="1">
          <mxGeometry width="50" height="50" relative="1" as="geometry">
            <mxPoint x="480" y="90" as="sourcePoint" />
            <mxPoint x="530" y="40" as="targetPoint" />
          </mxGeometry>
        </mxCell>
        <mxCell id="cGE_5ViqhjNnYanDLGzq-10" value="" style="endArrow=none;html=1;rounded=0;entryX=0;entryY=0.3333333333333333;entryDx=0;entryDy=0;entryPerimeter=0;exitX=1;exitY=0.5;exitDx=0;exitDy=0;" parent="1" source="cGE_5ViqhjNnYanDLGzq-6" target="cGE_5ViqhjNnYanDLGzq-1" edge="1">
          <mxGeometry width="50" height="50" relative="1" as="geometry">
            <mxPoint x="290" y="120" as="sourcePoint" />
            <mxPoint x="340" y="70" as="targetPoint" />
          </mxGeometry>
        </mxCell>
        <mxCell id="cGE_5ViqhjNnYanDLGzq-11" value="" style="endArrow=none;html=1;rounded=0;exitX=1;exitY=0.5;exitDx=0;exitDy=0;" parent="1" source="cGE_5ViqhjNnYanDLGzq-7" edge="1">
          <mxGeometry width="50" height="50" relative="1" as="geometry">
            <mxPoint x="270" y="210" as="sourcePoint" />
            <mxPoint x="430" y="80" as="targetPoint" />
          </mxGeometry>
        </mxCell>
        <mxCell id="cGE_5ViqhjNnYanDLGzq-12" value="Запустить приложение" style="ellipse;whiteSpace=wrap;html=1;" parent="1" vertex="1">
          <mxGeometry x="560" width="120" height="80" as="geometry" />
        </mxCell>
        <mxCell id="cGE_5ViqhjNnYanDLGzq-13" value="Посмотреть продукт" style="ellipse;whiteSpace=wrap;html=1;" parent="1" vertex="1">
          <mxGeometry x="560" y="90" width="120" height="80" as="geometry" />
        </mxCell>
        <mxCell id="cGE_5ViqhjNnYanDLGzq-16" value="" style="endArrow=block;dashed=0;endFill=0;endSize=12;html=1;rounded=0;exitX=0.5;exitY=0;exitDx=0;exitDy=0;exitPerimeter=0;" parent="1" source="cGE_5ViqhjNnYanDLGzq-2" target="cGE_5ViqhjNnYanDLGzq-1" edge="1">
          <mxGeometry width="160" relative="1" as="geometry">
            <mxPoint x="340" y="280" as="sourcePoint" />
            <mxPoint x="480" y="170" as="targetPoint" />
          </mxGeometry>
        </mxCell>
        <mxCell id="cGE_5ViqhjNnYanDLGzq-17" value="" style="endArrow=block;dashed=0;endFill=0;endSize=12;html=1;rounded=0;exitX=0.5;exitY=0;exitDx=0;exitDy=0;exitPerimeter=0;" parent="1" edge="1" target="cGE_5ViqhjNnYanDLGzq-2" source="cGE_5ViqhjNnYanDLGzq-4">
          <mxGeometry width="160" relative="1" as="geometry">
            <mxPoint x="454" y="530" as="sourcePoint" />
            <mxPoint x="453.54166666666674" y="400" as="targetPoint" />
          </mxGeometry>
        </mxCell>
        <mxCell id="cGE_5ViqhjNnYanDLGzq-18" value="Редактировать профиль" style="ellipse;whiteSpace=wrap;html=1;" parent="1" vertex="1">
          <mxGeometry x="130" y="290" width="120" height="80" as="geometry" />
        </mxCell>
        <mxCell id="cGE_5ViqhjNnYanDLGzq-19" value="" style="endArrow=none;html=1;rounded=0;entryX=0;entryY=0.3333333333333333;entryDx=0;entryDy=0;entryPerimeter=0;exitX=1;exitY=0.5;exitDx=0;exitDy=0;" parent="1" source="cGE_5ViqhjNnYanDLGzq-18" target="cGE_5ViqhjNnYanDLGzq-2" edge="1">
          <mxGeometry width="50" height="50" relative="1" as="geometry">
            <mxPoint x="360" y="310" as="sourcePoint" />
            <mxPoint x="410" y="260" as="targetPoint" />
          </mxGeometry>
        </mxCell>
        <mxCell id="cGE_5ViqhjNnYanDLGzq-20" value="Удалить профиль" style="ellipse;whiteSpace=wrap;html=1;" parent="1" vertex="1">
          <mxGeometry x="30" y="360" width="120" height="80" as="geometry" />
        </mxCell>
        <mxCell id="cGE_5ViqhjNnYanDLGzq-21" value="include" style="html=1;verticalAlign=bottom;endArrow=open;dashed=1;endSize=8;curved=0;rounded=0;" parent="1" source="cGE_5ViqhjNnYanDLGzq-18" target="cGE_5ViqhjNnYanDLGzq-20" edge="1">
          <mxGeometry relative="1" as="geometry">
            <mxPoint x="330" y="410" as="sourcePoint" />
            <mxPoint x="250" y="410" as="targetPoint" />
          </mxGeometry>
        </mxCell>
        <mxCell id="cGE_5ViqhjNnYanDLGzq-22" value="Возможность купить премиум подписку" style="ellipse;whiteSpace=wrap;html=1;" parent="1" vertex="1">
          <mxGeometry x="570" y="290" width="120" height="80" as="geometry" />
        </mxCell>
        <mxCell id="cGE_5ViqhjNnYanDLGzq-23" value="" style="endArrow=none;html=1;rounded=0;entryX=0;entryY=0.5;entryDx=0;entryDy=0;exitX=1;exitY=0.3333333333333333;exitDx=0;exitDy=0;exitPerimeter=0;" parent="1" source="cGE_5ViqhjNnYanDLGzq-2" target="cGE_5ViqhjNnYanDLGzq-22" edge="1">
          <mxGeometry width="50" height="50" relative="1" as="geometry">
            <mxPoint x="460" y="350" as="sourcePoint" />
            <mxPoint x="510" y="300" as="targetPoint" />
          </mxGeometry>
        </mxCell>
        <mxCell id="BRPn3-0SCnc0s2iGvoGP-1" value="Отменить премиум подписку" style="ellipse;whiteSpace=wrap;html=1;" vertex="1" parent="1">
          <mxGeometry x="590" y="410" width="120" height="80" as="geometry" />
        </mxCell>
        <mxCell id="BRPn3-0SCnc0s2iGvoGP-3" value="include" style="html=1;verticalAlign=bottom;endArrow=open;dashed=1;endSize=8;curved=0;rounded=0;entryX=0.5;entryY=0;entryDx=0;entryDy=0;" edge="1" parent="1" source="cGE_5ViqhjNnYanDLGzq-22" target="BRPn3-0SCnc0s2iGvoGP-1">
          <mxGeometry relative="1" as="geometry">
            <mxPoint x="600" y="409" as="sourcePoint" />
            <mxPoint x="520" y="409" as="targetPoint" />
          </mxGeometry>
        </mxCell>
        <mxCell id="BRPn3-0SCnc0s2iGvoGP-5" value="" style="endArrow=block;dashed=0;endFill=0;endSize=12;html=1;rounded=0;exitX=0.5;exitY=0;exitDx=0;exitDy=0;exitPerimeter=0;" edge="1" parent="1" source="cGE_5ViqhjNnYanDLGzq-5" target="cGE_5ViqhjNnYanDLGzq-4">
          <mxGeometry width="160" relative="1" as="geometry">
            <mxPoint x="338.83" y="730" as="sourcePoint" />
            <mxPoint x="450" y="660" as="targetPoint" />
          </mxGeometry>
        </mxCell>
        <mxCell id="BRPn3-0SCnc0s2iGvoGP-7" value="Может читать сообщение от тех поддержки&amp;nbsp;" style="ellipse;whiteSpace=wrap;html=1;" vertex="1" parent="1">
          <mxGeometry x="120" y="470" width="120" height="80" as="geometry" />
        </mxCell>
        <mxCell id="BRPn3-0SCnc0s2iGvoGP-8" value="Может писать в тех поддержку&amp;nbsp;" style="ellipse;whiteSpace=wrap;html=1;" vertex="1" parent="1">
          <mxGeometry x="200" y="380" width="120" height="80" as="geometry" />
        </mxCell>
        <mxCell id="BRPn3-0SCnc0s2iGvoGP-9" value="" style="endArrow=none;html=1;rounded=0;exitX=0.983;exitY=0.338;exitDx=0;exitDy=0;exitPerimeter=0;entryX=0;entryY=0.3333333333333333;entryDx=0;entryDy=0;entryPerimeter=0;" edge="1" parent="1" source="BRPn3-0SCnc0s2iGvoGP-8" target="cGE_5ViqhjNnYanDLGzq-2">
          <mxGeometry width="50" height="50" relative="1" as="geometry">
            <mxPoint x="310" y="410" as="sourcePoint" />
            <mxPoint x="410" y="340" as="targetPoint" />
          </mxGeometry>
        </mxCell>
        <mxCell id="BRPn3-0SCnc0s2iGvoGP-10" value="include" style="html=1;verticalAlign=bottom;endArrow=open;dashed=1;endSize=8;curved=0;rounded=0;exitX=0.5;exitY=1;exitDx=0;exitDy=0;entryX=1;entryY=0;entryDx=0;entryDy=0;" edge="1" parent="1" source="BRPn3-0SCnc0s2iGvoGP-8" target="BRPn3-0SCnc0s2iGvoGP-7">
          <mxGeometry relative="1" as="geometry">
            <mxPoint x="350" y="490" as="sourcePoint" />
            <mxPoint x="270" y="490" as="targetPoint" />
            <Array as="points" />
          </mxGeometry>
        </mxCell>
        <mxCell id="BRPn3-0SCnc0s2iGvoGP-11" value="Может писать сообщение пользователю" style="ellipse;whiteSpace=wrap;html=1;" vertex="1" parent="1">
          <mxGeometry x="50" y="620" width="120" height="80" as="geometry" />
        </mxCell>
        <mxCell id="BRPn3-0SCnc0s2iGvoGP-12" value="Может читать сообщение пользователя" style="ellipse;whiteSpace=wrap;html=1;" vertex="1" parent="1">
          <mxGeometry x="200" y="550" width="120" height="80" as="geometry" />
        </mxCell>
        <mxCell id="BRPn3-0SCnc0s2iGvoGP-13" value="" style="endArrow=none;html=1;rounded=0;exitX=0.983;exitY=0.375;exitDx=0;exitDy=0;exitPerimeter=0;entryX=0;entryY=0.3333333333333333;entryDx=0;entryDy=0;entryPerimeter=0;" edge="1" parent="1" source="BRPn3-0SCnc0s2iGvoGP-12" target="cGE_5ViqhjNnYanDLGzq-4">
          <mxGeometry width="50" height="50" relative="1" as="geometry">
            <mxPoint x="380" y="620" as="sourcePoint" />
            <mxPoint x="430" y="570" as="targetPoint" />
          </mxGeometry>
        </mxCell>
        <mxCell id="BRPn3-0SCnc0s2iGvoGP-15" value="include" style="html=1;verticalAlign=bottom;endArrow=open;dashed=1;endSize=8;curved=0;rounded=0;exitX=0;exitY=1;exitDx=0;exitDy=0;entryX=1;entryY=0;entryDx=0;entryDy=0;" edge="1" parent="1" source="BRPn3-0SCnc0s2iGvoGP-12" target="BRPn3-0SCnc0s2iGvoGP-11">
          <mxGeometry relative="1" as="geometry">
            <mxPoint x="350" y="690" as="sourcePoint" />
            <mxPoint x="270" y="690" as="targetPoint" />
          </mxGeometry>
        </mxCell>
        <mxCell id="BRPn3-0SCnc0s2iGvoGP-16" value="Редактирование всех данных&amp;nbsp;" style="ellipse;whiteSpace=wrap;html=1;" vertex="1" parent="1">
          <mxGeometry x="130" y="790" width="120" height="80" as="geometry" />
        </mxCell>
        <mxCell id="BRPn3-0SCnc0s2iGvoGP-17" value="" style="endArrow=none;html=1;rounded=0;entryX=0;entryY=0.3333333333333333;entryDx=0;entryDy=0;entryPerimeter=0;exitX=1;exitY=0.5;exitDx=0;exitDy=0;" edge="1" parent="1" source="BRPn3-0SCnc0s2iGvoGP-16" target="cGE_5ViqhjNnYanDLGzq-5">
          <mxGeometry width="50" height="50" relative="1" as="geometry">
            <mxPoint x="280" y="850" as="sourcePoint" />
            <mxPoint x="330" y="800" as="targetPoint" />
          </mxGeometry>
        </mxCell>
      </root>
    </mxGraphModel>
  </diagram>
</mxfile>
